<?xml version="1.0" encoding="UTF-8" standalone="no"?>
<!-- Generator: Adobe Illustrator 27.5.0, SVG Export Plug-In . SVG Version: 6.00 Build 0)  -->

<svg
   version="1.1"
   id="Layer_1"
   x="0px"
   y="0px"
   viewBox="0 0 20.577999 4.4881201"
   xml:space="preserve"
   width="20.577999"
   height="4.4881201"
   xmlns="http://www.w3.org/2000/svg"
   xmlns:svg="http://www.w3.org/2000/svg"><defs
   id="defs1146" />
<g
   id="g946"
   transform="rotate(3.8781145,124.85295,-26.567843)">
			<path
   style="fill:#ff5b78"
   d="m 14.053,11.924 c -0.106,0.044 -0.265,-0.012 -0.354,0.055 -0.12,0.026 -0.085,-0.101 -0.219,-0.062 -0.054,0.042 -0.152,0.033 -0.238,0.045 0.099,0.089 0.189,0.032 0.278,0.012 0.043,0.036 0.101,0.049 0.178,0.034 0.103,0.004 0.206,0.01 0.309,0.011 0.062,10e-4 0.085,-0.031 0.101,-0.055 0.014,-0.02 -0.036,-0.048 -0.055,-0.04 z"
   id="path909" />
			<path
   style="fill:#ff5b78"
   d="m 10.668,11.916 c -0.064,0.006 -0.139,-0.027 -0.208,0.018 0.104,0.028 0.194,0.05 0.298,0.013 0.122,0.003 0.252,0.028 0.355,-0.047 -0.16,-0.018 -0.302,-0.003 -0.445,0.016 z"
   id="path910" />
			<path
   style="fill:#ff5b78"
   d="m 18.574,12.106 c -0.092,-0.009 -0.17,-0.045 -0.27,-0.04 -0.051,0.002 -0.11,-0.041 -0.143,-0.009 -0.036,0.034 0.057,0.035 0.09,0.052 0.107,0.042 0.232,0.041 0.356,0.039 0.128,-0.028 0.285,-0.005 0.397,-0.063 -0.149,-0.002 -0.297,-0.028 -0.43,0.021 z"
   id="path911" />
			<path
   style="fill:#ff5b78"
   d="M 9.422,11.924 C 9.362,11.922 9.302,11.92 9.242,11.918 v 0 C 9.144,11.942 9.103,11.878 9.02,11.878 8.968,11.874 8.916,11.866 8.875,11.892 v 0 c -0.057,0.015 -0.113,0.031 -0.079,0.072 0.019,0.023 0.029,0.063 0.105,0.027 0.044,0.011 0.088,0.022 0.132,0.032 0.107,0.015 0.09,-0.079 0.198,-0.063 0.045,0.003 0.09,0.006 0.134,0.009 v 0 C 9.501,12.017 9.584,11.929 9.709,11.946 9.614,11.894 9.514,11.934 9.422,11.924 Z"
   id="path912" />
			<path
   style="fill:#ff5b78"
   d="m 11.457,11.915 c -0.07,0.019 -0.168,-0.019 -0.228,0.03 0.075,0.064 0.175,0.014 0.262,0.018 0.042,0.039 0.092,0.036 0.141,0.005 0.022,-0.014 0.066,-0.037 0.034,-0.051 -0.062,-0.025 -0.138,-0.018 -0.209,-0.002 z"
   id="path913" />
			<path
   style="fill:#ff5b78"
   d="m 16.698,11.964 c -0.043,0.005 -0.097,0.03 -0.111,0.051 -0.018,0.03 0.046,0.032 0.088,0.035 0.05,0.004 0.09,-0.001 0.08,-0.036 -0.008,-0.02 0.005,-0.056 -0.057,-0.05 z"
   id="path914" />
			<path
   style="fill:#ff5b78"
   d="M 8.324,11.92 C 8.357,11.881 8.283,11.889 8.249,11.886 8.183,11.879 8.116,11.878 8.049,11.874 7.771,11.849 7.493,11.882 7.215,11.875 c -0.01,0.009 0.001,0.016 0.006,0.023 -0.003,0 -0.006,0 -0.009,-10e-4 C 7.213,11.89 7.214,11.882 7.215,11.874 7.156,11.857 7.099,11.83 7.027,11.861 6.923,11.857 6.819,11.853 6.714,11.849 v 0 C 6.676,11.847 6.629,11.835 6.603,11.844 c -0.056,0.018 -0.097,0.104 -0.157,0.001 0,0 -0.058,0.003 -0.076,0.012 -0.032,0.016 -0.021,0.034 0.007,0.053 0.139,0.091 0.263,0.087 0.373,-0.015 0.015,0.001 0.031,0.001 0.046,0.002 0.079,-0.009 0.156,-0.009 0.227,0.015 l -10e-4,10e-4 c -0.023,0.066 0.026,0.096 0.154,0.093 0.081,-0.002 0.163,10e-4 0.244,10e-4 0.086,0.006 0.177,0.022 0.233,-0.033 v 0 C 7.642,11.94 7.556,11.95 7.534,11.92 v 0 c 0.157,0.02 0.383,-0.058 0.455,0.089 0.005,0.011 0.074,0.016 0.107,-0.015 0.027,-0.026 0.083,-0.043 0.126,-0.064 0.035,-0.002 0.094,-10e-4 0.102,-0.01 z M 7.069,11.915 c 0,0 -0.001,0.001 -0.001,0.001 H 7.067 c 10e-4,-0.001 0.002,-0.001 0.002,-0.001 z"
   id="path915" />
			<path
   style="fill:#ff5b78"
   d="m 18.073,12.076 c -0.087,-0.033 -0.153,-0.04 -0.239,-0.019 0.068,0.032 0.131,0.05 0.239,0.019 z"
   id="path916" />
			<path
   style="fill:#ff5b78"
   d="m 15.257,12.031 c 0.101,-0.019 0.163,-0.03 0.225,-0.042 -0.071,-0.001 -0.159,-0.037 -0.225,0.042 z"
   id="path917" />
			<path
   style="fill:#ff5b78"
   d="m 15.501,11.92 c 0.082,0.037 0.189,0.007 0.236,0.055 -0.006,0.002 -0.014,0.004 -0.018,0.007 -0.004,0.003 -0.007,0.009 -0.004,0.011 0.045,0.035 0.125,0.062 0.182,0.039 0.057,-0.024 0.036,-0.067 -0.062,-0.074 -0.094,-0.044 -0.201,-0.042 -0.334,-0.038 z"
   id="path918" />
			<path
   style="fill:#ff5b78"
   d="m 8.22,12.009 c 0.015,0.016 0.049,0.021 0.088,0.022 0.022,0 0.05,0 0.046,-0.017 C 8.349,11.992 8.323,11.976 8.283,11.973 8.251,11.97 8.23,11.984 8.22,12.009 Z"
   id="path919" />
			<path
   style="fill:#ff5b78"
   d="m 12.328,11.906 c -0.059,0.003 -0.127,-0.008 -0.161,0.029 -0.016,0.017 0.004,0.027 0.033,0.038 0.081,0.029 0.151,0.028 0.216,-0.012 0.048,0.005 0.08,-0.003 0.052,-0.03 -0.03,-0.03 -0.068,-0.059 -0.14,-0.025 z"
   id="path920" />
			<path
   style="fill:#ff5b78"
   d="m 17.392,12.013 v 0 0 c -0.055,-0.092 -0.206,-0.043 -0.312,-0.061 -0.166,0.024 -0.043,0.059 -0.013,0.09 v 0 0 c 0.049,0.018 0.09,0.079 0.149,0.045 0.075,-0.044 -0.013,-0.074 -0.094,-0.092 0,0 0,0 0,0 0.002,-0.006 0.003,-0.012 0.005,-0.018 v 0 c 0.084,0.009 0.2,-0.014 0.219,0.061 -0.007,0.027 0.002,0.05 0.065,0.05 0.017,0 0.046,-0.01 0.048,-0.017 0.005,-0.027 -0.028,-0.044 -0.067,-0.058 z"
   id="path921" />
			<path
   style="fill:#ff5b78"
   d="m 15.101,11.916 c -0.074,-0.004 -0.148,-0.008 -0.222,-0.012 -0.007,0.037 0.092,0.011 0.079,0.042 -0.209,0.021 -0.418,0.023 -0.679,0.005 0.214,0.093 0.587,0.113 0.804,0.062 0.158,-0.024 0.079,-0.061 0.018,-0.097 z"
   id="path922" />
			<path
   style="fill:#ff5b78"
   d="m 10,11.944 c 0.024,10e-4 0.048,0.007 0.059,0.002 0.022,-0.009 0.115,0.019 0.062,-0.025 -0.025,-0.022 -0.09,-0.013 -0.121,0.023 z"
   id="path923" />
			<path
   style="fill:#ff5b78"
   d="m 16.363,12.03 c 0.005,0.009 0.028,0.015 0.049,0.026 0.013,-0.007 0.032,-0.015 0.03,-0.017 -0.009,-0.009 -0.021,-0.021 -0.038,-0.024 -0.02,-0.006 -0.049,-0.001 -0.041,0.015 z"
   id="path924" />
			<path
   style="fill:#ff5b78"
   d="m 22.2,10.387 c 0.026,0.003 0.06,-0.016 0.09,-0.025 -0.032,-0.005 -0.065,-0.011 -0.097,-0.016 -0.003,0.015 -0.06,0.035 0.007,0.041 z"
   id="path925" />
			<path
   style="fill:#ff5b78"
   d="m 13.067,11.897 c -0.068,-0.002 -0.092,0.031 -0.136,0.048 -0.046,0.002 -0.136,-0.018 -0.124,0.019 0.019,0.06 0.113,0.061 0.206,0.036 0.034,-0.024 0.067,-0.048 0.101,-0.072 0.035,-0.001 0.092,0.002 0.077,-0.024 -0.023,-0.037 -0.079,-0.021 -0.124,-0.007 z"
   id="path926" />
			<path
   style="fill:#ff5b78"
   d="M 22.709,9.055 C 22.87,9.037 22.741,9.008 22.723,8.983 22.736,8.978 22.751,8.978 22.762,8.967 22.76,8.967 22.758,8.966 22.755,8.966 22.804,8.938 22.632,8.923 22.699,8.88 22.793,8.82 22.728,8.737 22.727,8.663 22.728,8.66 22.728,8.658 22.729,8.655 c 0.021,-10e-4 0.038,0.002 0.06,0 -0.02,-0.006 -0.038,-0.006 -0.058,-0.011 0.002,-0.01 0.005,-0.021 0.007,-0.031 0.069,-0.072 -0.005,-0.134 -0.054,-0.197 -0.01,-0.017 -0.02,-0.033 -0.03,-0.05 0.003,-0.004 0.008,-0.007 0.008,-0.011 0,-0.003 -0.005,-0.009 -0.009,-0.009 -0.112,-0.008 -0.223,-0.015 -0.335,-0.023 -0.022,-0.002 -0.03,0 -0.026,0.012 0.031,0.008 0.062,0.017 0.114,0.031 -0.058,0.002 -0.094,0.004 -0.131,0.005 0,0 0,0 0,0 0,0 0,0 0,0 C 22.26,8.369 22.245,8.368 22.23,8.369 22.112,8.351 22.003,8.314 21.873,8.324 c -0.061,0 -0.122,10e-4 -0.183,0.002 -0.005,-0.015 -0.024,-0.017 -0.038,-0.023 0.002,0 0.003,0 0.005,10e-4 0.099,0.018 0.209,0.018 0.315,0.022 0.03,10e-4 0.062,-0.007 0.071,-0.024 0.043,0.007 0.092,0.006 0.151,0.001 C 22.128,8.29 22.073,8.28 22.015,8.269 L 22.014,8.268 c -10e-4,0 -0.003,0 -0.004,0 -0.024,-0.005 -0.047,-0.009 -0.075,-0.014 0.01,0.008 0.021,0.008 0.031,0.014 C 21.819,8.271 21.696,8.196 21.542,8.229 21.31,8.233 21.082,8.187 20.849,8.215 20.774,8.212 20.699,8.21 20.624,8.207 20.577,8.194 20.504,8.197 20.513,8.152 20.61,8.156 20.714,8.177 20.78,8.117 20.812,8.114 20.865,8.118 20.853,8.091 20.841,8.064 20.785,8.071 20.745,8.068 20.589,8.052 20.43,8.048 20.274,8.023 20.163,8.005 20.037,7.989 19.914,8.015 19.897,7.996 19.877,7.979 19.83,7.986 19.813,7.989 19.792,7.998 19.779,8.009 19.675,7.997 19.575,7.969 19.463,7.992 19.389,7.99 19.315,7.988 19.24,7.986 19.225,7.996 19.226,8 19.222,8.006 19.192,7.966 19.148,7.938 19.038,7.946 18.979,7.929 18.921,7.91 18.86,7.895 18.821,7.886 18.78,7.893 18.776,7.918 18.769,7.953 18.82,7.94 18.854,7.94 c 0.031,0 0.061,10e-4 0.091,0.002 0.013,0.079 0.121,0.09 0.226,0.113 C 19.065,8.052 18.959,8.05 18.853,8.064 18.748,8.061 18.555,8.049 18.552,8.056 18.544,8.076 18.533,8.081 18.523,8.091 18.452,8.088 18.381,8.084 18.31,8.08 18.306,8.08 18.301,8.077 18.297,8.077 v 0 c -0.007,0 -0.014,10e-4 -0.022,10e-4 C 18.251,8.077 18.228,8.076 18.204,8.074 18.183,8.073 18.16,8.079 18.138,8.082 18.082,8.084 18.027,8.086 17.971,8.088 17.965,8.087 17.963,8.091 17.958,8.091 17.948,8.089 17.935,8.094 17.926,8.09 17.821,8.041 17.738,8.062 17.648,8.083 17.612,8.061 17.576,8.051 17.541,8.079 17.373,8.06 17.208,8.026 17.031,8.057 16.955,8.054 16.879,8.051 16.804,8.049 16.772,8.055 16.739,8.062 16.707,8.068 16.675,8.08 16.643,8.091 16.61,8.103 v 0 C 16.6,8.092 16.592,8.081 16.58,8.071 16.563,8.057 16.548,8.044 16.517,8.068 16.479,8.098 16.432,8.102 16.384,8.099 16.361,8.07 16.333,8.072 16.302,8.087 16.291,8.085 16.278,8.084 16.268,8.082 15.824,8.008 15.386,8.039 14.947,8.091 14.868,8.097 14.787,8.077 14.709,8.094 14.627,8.087 14.544,8.083 14.46,8.092 14.452,8.087 14.455,8.078 14.454,8.07 c 0.003,10e-4 0.007,0.003 0.01,0.005 0.014,-0.008 0.03,-0.016 0.041,-0.026 C 14.517,8.038 14.514,8.024 14.487,8.026 14.471,8.027 14.453,8.035 14.435,8.041 14.431,8.034 14.432,8.025 14.413,8.026 14.354,8.029 14.25,8.023 14.241,8.082 14.05,8.033 13.912,8.023 13.773,8.061 13.778,8.037 13.775,8.015 13.709,8.005 13.607,7.99 13.546,8.026 13.496,8.067 c -0.01,0.006 -0.006,0.012 -0.003,0.019 -0.002,0 -0.003,0 -0.006,0 C 13.489,8.08 13.492,8.073 13.496,8.067 13.436,8.062 13.376,8.057 13.316,8.052 13.313,8.033 13.297,8 13.266,8.015 13.222,8.037 13.243,8.058 13.273,8.078 13.217,8.088 13.162,8.099 13.104,8.103 13.095,8.098 13.086,8.093 13.077,8.089 13.074,8.062 13.071,8.035 13.068,8.008 c -0.019,0.002 -0.049,0 -0.055,0.006 -0.03,0.028 0.009,0.053 0.022,0.079 v 0 0 C 12.97,8.114 12.913,8.114 12.856,8.103 12.741,8.044 12.492,8 12.38,8.031 c -0.049,0.013 0.01,0.031 0.036,0.042 v 0 c -0.005,0.007 -0.009,0.015 -0.011,0.023 -0.002,10e-4 -0.004,0 -0.006,10e-4 C 12.33,8.096 12.243,7.976 12.196,8.109 v 0 C 11.943,8.113 12.161,8.026 12.129,7.99 12.022,7.986 12.034,8.024 12.022,8.053 11.989,8.059 11.956,8.065 11.923,8.071 11.852,8.05 11.744,8.074 11.702,8.019 v 0 0 C 11.617,8.006 11.569,8.036 11.515,8.058 11.477,8.055 11.442,8.046 11.402,8.048 11.35,8.045 11.324,8.063 11.304,8.085 11.3,8.079 11.301,8.073 11.29,8.068 11.174,8.025 11.052,8.006 10.915,8.039 10.853,8.046 10.791,8.053 10.729,8.06 10.622,8.053 10.515,8.047 10.408,8.04 10.259,8 10.202,8.051 10.145,8.101 10.123,8.101 10.101,8.1 10.08,8.099 9.996,8.038 9.87,8.074 9.756,8.08 9.75,8.084 9.755,8.088 9.753,8.091 v 0 C 9.754,8.088 9.755,8.084 9.756,8.081 9.683,8.11 9.664,7.969 9.571,8.065 9.502,8.081 9.396,8.033 9.35,8.092 c -0.046,0 -0.092,10e-4 -0.138,0 C 9.199,8.09 9.187,8.093 9.174,8.092 9.13,8.004 8.97,8.081 8.882,8.057 8.787,8.02 8.693,8.009 8.602,8.06 8.452,8.022 8.308,8.021 8.175,8.081 8.176,8.085 8.184,8.087 8.188,8.09 c -0.001,0 -0.003,0 -0.005,0 L 8.175,8.081 C 8.149,8.082 8.124,8.082 8.098,8.083 8.082,8.06 8.122,8.016 8.053,8.017 7.971,8.018 7.876,8.03 7.869,8.092 7.878,8.109 7.887,8.126 7.896,8.143 7.848,8.164 7.765,8.147 7.732,8.185 7.71,8.209 7.667,8.205 7.629,8.207 7.489,8.19 7.373,8.231 7.25,8.254 v 0 C 7.227,8.257 7.202,8.257 7.177,8.258 7.14,8.219 7.04,8.261 7.003,8.221 7.022,8.213 7.041,8.205 7.06,8.197 v 0 0 C 7.147,8.189 7.264,8.216 7.298,8.142 7.328,8.143 7.357,8.143 7.387,8.144 7.402,8.189 7.46,8.178 7.515,8.172 7.503,8.151 7.483,8.133 7.435,8.13 v 0 C 7.45,8.151 7.487,8.159 7.516,8.172 7.573,8.17 7.618,8.205 7.695,8.185 7.636,8.137 7.708,8.058 7.568,8.036 7.468,8.021 7.511,8.101 7.436,8.114 7.432,8.096 7.441,8.068 7.423,8.062 7.361,8.042 7.353,8.091 7.305,8.094 7.235,8.078 7.283,8.032 7.23,8.012 7.204,7.98 7.173,7.98 7.136,8.008 6.989,8.028 6.824,8.019 6.699,8.079 6.679,8.073 6.66,8.067 6.641,8.061 6.651,8.061 6.667,8.06 6.677,8.06 6.639,8.038 6.607,8.035 6.575,8.041 6.561,8.037 6.547,8.033 6.534,8.029 6.519,8.028 6.504,8.027 6.488,8.026 6.449,7.911 6.334,8.042 6.271,8.007 6.196,7.956 6.112,7.983 6.03,7.999 6.006,7.996 5.989,7.999 5.967,7.999 5.981,7.987 5.978,7.972 5.957,7.96 5.906,7.93 5.888,7.963 5.869,7.983 v 0 C 5.749,7.992 5.684,7.96 5.656,7.901 5.641,7.877 5.602,7.873 5.562,7.87 v 0 C 5.576,7.77 5.826,7.848 5.86,7.763 5.739,7.756 5.622,7.75 5.504,7.744 5.477,7.661 5.352,7.686 5.26,7.686 5.197,7.686 5.095,7.685 5.135,7.75 5.067,7.789 4.961,7.749 4.891,7.784 4.763,7.797 4.647,7.819 4.592,7.889 4.511,7.898 4.459,7.932 4.392,7.954 4.265,7.926 4.124,7.917 3.968,7.931 h 0.003 v 0 C 3.895,7.825 3.782,7.9 3.682,7.915 c 0,0 0,0 0,0 C 3.493,7.955 3.516,8.031 3.558,8.112 3.555,8.118 3.556,8.124 3.562,8.131 3.562,8.14 3.561,8.148 3.561,8.157 3.554,8.188 3.548,8.221 3.542,8.253 v 0 0 C 3.499,8.28 3.544,8.301 3.558,8.325 3.47,8.365 3.511,8.42 3.499,8.469 3.483,8.478 3.478,8.487 3.473,8.496 3.422,8.508 3.371,8.519 3.32,8.531 3.271,8.543 3.213,8.55 3.205,8.589 3.271,8.594 3.319,8.58 3.361,8.559 3.401,8.551 3.439,8.539 3.478,8.529 3.482,8.533 3.48,8.537 3.485,8.541 3.479,8.566 3.474,8.591 3.469,8.615 v 0 C 3.493,8.637 3.494,8.657 3.483,8.676 3.422,8.692 3.37,8.708 3.32,8.725 3.245,8.732 3.164,8.732 3.103,8.797 3.217,8.77 3.297,8.75 3.376,8.731 3.397,8.73 3.417,8.725 3.438,8.722 3.436,8.723 3.436,8.724 3.434,8.726 3.202,8.774 3.375,8.842 3.4,8.902 3.39,8.908 3.379,8.91 3.37,8.917 3.382,8.916 3.391,8.915 3.403,8.914 3.401,8.927 3.398,8.94 3.396,8.953 3.363,8.968 3.331,8.983 3.298,8.998 3.28,9.035 3.264,9.073 3.249,9.111 3.201,9.107 3.153,9.105 3.135,9.136 3.121,9.159 3.189,9.157 3.232,9.16 c -0.001,0.002 0,0.005 0,0.007 C 3.127,9.215 3.168,9.222 3.228,9.222 3.225,9.25 3.216,9.278 3.223,9.307 3.197,9.307 3.172,9.308 3.146,9.308 3.078,9.32 3.095,9.352 3.09,9.378 3.025,9.427 3.16,9.469 3.098,9.525 3.092,9.529 3.093,9.535 3.088,9.54 3.084,9.541 3.08,9.543 3.076,9.544 2.967,9.568 2.906,9.5 2.807,9.505 2.74,9.538 2.691,9.582 2.578,9.578 2.544,9.577 2.48,9.599 2.501,9.625 2.522,9.65 2.547,9.691 2.628,9.678 2.692,9.668 2.751,9.648 2.815,9.637 2.939,9.616 3.003,9.632 2.953,9.708 2.864,9.721 2.75,9.703 2.709,9.769 v 0 0 C 2.563,9.83 2.639,9.903 2.703,9.958 c 0.066,0.057 0.159,0.04 0.246,0.011 -0.002,0.029 0.008,0.058 0.012,0.087 0,0 0,0 0,0 -0.084,0.013 -0.206,0.037 -0.198,0.079 0.01,0.051 0.119,0.038 0.197,0.02 0,0 0,0 0,0 -0.025,0.006 -0.05,0.012 -0.074,0.018 -0.033,0.002 -0.083,-0.002 -0.073,0.025 0.01,0.027 0.066,0.021 0.105,0.026 v 0 c 0.013,0.025 0.026,0.05 0.039,0.075 -0.044,0.007 -0.088,0.015 -0.133,0.022 -0.011,-0.014 -0.02,-0.028 -0.033,-0.046 -0.024,0.025 -0.05,0.045 -0.067,0.062 -0.035,0.006 -0.071,0.012 -0.106,0.018 -0.175,0.014 -0.052,0.077 -0.069,0.116 0.057,0.002 0.087,-0.013 0.097,-0.042 0.002,0 0.005,0 0.007,0 10e-4,0 10e-4,0 10e-4,0 -0.04,0.011 -0.07,0.028 -0.105,0.042 L 2.548,10.47 c -0.045,0.007 -0.091,0.015 -0.136,0.022 -0.182,0.031 -0.07,0.107 -0.089,0.162 -0.015,0.023 -0.067,0.04 -0.047,0.07 0.006,0.025 0.012,0.049 0.018,0.074 L 2.291,10.796 c -0.161,0.018 -0.032,0.047 -0.014,0.072 -0.013,0.005 -0.028,0.005 -0.039,0.016 0.002,0 0.004,10e-4 0.007,0.002 -0.049,0.028 0.123,0.043 0.056,0.086 -0.094,0.06 -0.029,0.143 -0.028,0.217 -0.001,0.003 -0.001,0.005 -0.002,0.008 -0.021,0.001 -0.038,-0.002 -0.06,0 0.02,0.006 0.038,0.006 0.058,0.011 -0.002,0.01 -0.004,0.021 -0.007,0.031 v 0 c -0.069,0.072 0.005,0.134 0.054,0.197 0.01,0.017 0.02,0.033 0.03,0.05 v 0 c -0.003,0.004 -0.008,0.007 -0.009,0.011 0,0.003 0.005,0.009 0.009,0.009 0.112,0.008 0.224,0.015 0.335,0.023 0.022,0.002 0.03,0 0.026,-0.012 C 2.676,11.509 2.645,11.5 2.593,11.486 2.651,11.483 2.687,11.482 2.724,11.48 v 0 0 c 0.015,0.002 0.03,0.003 0.045,0.002 0.118,0.018 0.227,0.055 0.357,0.045 0.061,-10e-4 0.122,-10e-4 0.183,-0.002 0,0 0,0 0,0 0.005,0.015 0.024,0.017 0.037,0.024 -0.002,0 -0.003,0 -0.005,-10e-4 C 3.242,11.53 3.132,11.53 3.026,11.526 2.996,11.525 2.965,11.533 2.955,11.55 2.912,11.543 2.863,11.544 2.803,11.549 c 0.066,0.013 0.121,0.023 0.179,0.034 l 10e-4,10e-4 c 10e-4,0 0.002,0 0.004,0 0.024,0.005 0.047,0.009 0.075,0.014 -0.01,-0.008 -0.021,-0.008 -0.031,-0.014 0.147,-0.003 0.27,0.072 0.425,0.039 0.232,-0.004 0.46,0.042 0.693,0.014 0.075,0.003 0.15,0.005 0.225,0.008 0.047,0.013 0.12,0.01 0.112,0.055 -0.097,-0.004 -0.201,-0.025 -0.267,0.035 -0.032,0.003 -0.085,-10e-4 -0.072,0.026 0.012,0.027 0.068,0.02 0.108,0.023 v 0 c 0.156,0.016 0.315,0.02 0.471,0.045 0.111,0.018 0.238,0.034 0.36,0.009 0.017,0.019 0.037,0.036 0.084,0.029 0.016,-0.002 0.038,-0.012 0.051,-0.023 0.104,0.012 0.204,0.04 0.315,0.017 0.074,0.002 0.149,0.004 0.223,0.006 0,0 0,0 0,0 0,0 0,0 0,0 0.016,-0.009 0.016,-0.013 0.02,-0.019 0.03,0.04 0.074,0.068 0.184,0.06 0.059,0.017 0.117,0.036 0.178,0.051 0.039,0.009 0.08,0.002 0.085,-0.023 0.006,-0.035 -0.044,-0.022 -0.078,-0.022 -0.03,0 -0.061,-10e-4 -0.091,-10e-4 -0.013,-0.079 -0.121,-0.09 -0.226,-0.113 0.106,0.003 0.212,0.005 0.318,-0.009 0.105,0.003 0.298,0.015 0.301,0.008 0.007,-0.02 0.019,-0.025 0.029,-0.035 0.071,0.003 0.142,0.007 0.213,0.011 0.004,0 0.01,0.003 0.014,0.003 0.008,0 0.015,-0.001 0.023,-0.001 0.023,0.001 0.046,0.002 0.069,0.004 0.021,10e-4 0.043,-0.005 0.065,-0.008 0.056,-0.002 0.112,-0.004 0.168,-0.006 0.006,0.001 0.008,-0.003 0.013,-0.003 0.01,0.002 0.023,-0.004 0.032,0.001 0.105,0.049 0.188,0.028 0.278,0.007 0.036,0.022 0.072,0.032 0.107,0.004 0.168,0.019 0.332,0.052 0.509,0.022 0.076,0.003 0.152,0.006 0.227,0.008 0.032,-0.006 0.065,-0.013 0.097,-0.019 0.032,-0.012 0.065,-0.023 0.097,-0.035 0.01,0.011 0.018,0.022 0.03,0.032 0.017,0.014 0.032,0.027 0.063,0.003 0.038,-0.03 0.085,-0.034 0.133,-0.031 0.023,0.029 0.051,0.028 0.082,0.012 0.011,0.002 0.024,0.003 0.034,0.005 0.444,0.074 0.882,0.043 1.321,-0.009 0.079,-0.006 0.16,0.014 0.238,-0.003 0.082,0.007 0.165,0.011 0.249,0.002 0.008,0.005 0.005,0.014 0.006,0.022 -0.003,-10e-4 -0.007,-0.003 -0.01,-0.005 -0.014,0.009 -0.03,0.016 -0.041,0.026 -0.012,0.011 -0.009,0.025 0.018,0.023 0.016,-0.001 0.034,-0.009 0.052,-0.015 0.004,0.007 0.003,0.016 0.022,0.015 0.059,-0.003 0.163,0.003 0.172,-0.056 0.191,0.049 0.329,0.059 0.468,0.021 -0.005,0.024 -0.002,0.046 0.064,0.056 0.102,0.015 0.163,-0.021 0.213,-0.062 0.01,-0.006 0.006,-0.012 0.003,-0.019 0.002,0 0.003,0 0.006,0 -0.002,0.007 -0.005,0.013 -0.009,0.019 0.06,0.005 0.12,0.01 0.18,0.015 0.003,0.019 0.019,0.052 0.05,0.037 0.044,-0.022 0.023,-0.043 -0.007,-0.063 0.056,-0.011 0.111,-0.021 0.169,-0.025 0.009,0.005 0.018,0.01 0.027,0.014 0.003,0.027 0.006,0.054 0.009,0.081 0.019,-0.002 0.049,0 0.055,-0.006 0.03,-0.028 -0.009,-0.053 -0.022,-0.079 v 0 0 c 0.065,-0.021 0.122,-0.021 0.179,-0.01 0.115,0.056 0.364,0.099 0.476,0.069 0.049,-0.013 -0.01,-0.031 -0.036,-0.042 v 0 c 0.005,-0.007 0.009,-0.015 0.011,-0.023 0.002,0 0.004,0 0.006,-10e-4 0.069,10e-4 0.156,0.121 0.203,-0.012 v 0 c 0.253,-0.004 0.035,0.083 0.067,0.119 0.107,0.004 0.095,-0.034 0.107,-0.063 0.033,-0.006 0.066,-0.012 0.099,-0.018 0.071,0.021 0.179,-0.002 0.221,0.052 v 0 0 c 0.085,0.013 0.132,-0.016 0.186,-0.039 0.038,0.002 0.073,0.012 0.113,0.01 0.052,0.002 0.078,-0.015 0.098,-0.037 0.004,0.005 0.003,0.011 0.014,0.016 0.116,0.043 0.238,0.062 0.375,0.029 0.062,-0.007 0.124,-0.014 0.186,-0.021 0.107,0.007 0.214,0.013 0.321,0.02 0.149,0.04 0.206,-0.011 0.263,-0.061 0.022,10e-4 0.043,10e-4 0.065,0.002 0.084,0.061 0.211,0.025 0.324,0.019 0.005,-0.003 0,-0.007 0.003,-0.01 v 0 c -10e-4,0.003 -0.002,0.007 -0.003,0.01 0.072,-0.029 0.092,0.112 0.184,0.016 0.07,-0.016 0.175,0.031 0.221,-0.027 0.046,0 0.092,0 0.139,0 0.013,0.002 0.025,-10e-4 0.038,0 0.044,0.088 0.204,0.011 0.292,0.035 0.095,0.036 0.189,0.048 0.28,-0.003 0.15,0.038 0.294,0.039 0.427,-0.021 -10e-4,-0.004 -0.009,-0.006 -0.013,-0.009 10e-4,0 0.003,0 0.004,0 l 0.008,0.009 c 0.026,-0.001 0.051,-0.001 0.077,-0.001 0.016,0.023 -0.024,0.067 0.045,0.066 0.081,-10e-4 0.177,-0.013 0.183,-0.075 -0.009,-0.017 -0.018,-0.034 -0.027,-0.051 0.049,-0.021 0.132,-0.004 0.165,-0.042 0.022,-0.023 0.064,-0.019 0.102,-0.021 0.141,0.016 0.256,-0.024 0.379,-0.048 v 0 c 0.024,-0.002 0.048,-0.003 0.073,-0.004 0.038,0.039 0.138,-0.003 0.174,0.037 -0.019,0.008 -0.038,0.016 -0.057,0.024 v 0 0 c -0.087,0.008 -0.204,-0.02 -0.238,0.054 -0.03,-0.001 -0.059,-0.001 -0.089,-0.002 -0.015,-0.045 -0.073,-0.034 -0.128,-0.028 -0.057,0.003 -0.102,-0.033 -0.179,-0.012 0.059,0.048 -0.013,0.127 0.127,0.149 0.1,0.015 0.057,-0.065 0.132,-0.078 0.004,0.018 -0.005,0.047 0.013,0.052 0.062,0.02 0.07,-0.029 0.118,-0.032 0.069,0.016 0.021,0.062 0.075,0.082 0.026,0.033 0.057,0.033 0.094,0.005 0.148,-0.021 0.313,-0.012 0.438,-0.071 0.019,0.006 0.038,0.012 0.058,0.018 -0.01,0 -0.026,0.001 -0.035,0.001 0.038,0.023 0.07,0.025 0.101,0.019 0.014,0.004 0.027,0.008 0.041,0.013 0.015,10e-4 0.03,0.002 0.046,0.003 v 0 0 c 0.039,0.115 0.154,-0.016 0.217,0.019 0.074,0.051 0.158,0.025 0.241,0.008 0.024,0.003 0.042,0 0.063,0 -0.015,0.012 -0.011,0.027 0.01,0.039 0.051,0.029 0.069,-0.003 0.088,-0.023 0.12,-0.009 0.185,0.023 0.213,0.081 0.015,0.024 0.054,0.028 0.094,0.031 0.008,10e-4 0.016,0.002 0.025,0.003 v 0 c -0.007,-0.003 -0.014,-0.007 -0.025,-0.003 -0.014,0.1 -0.263,0.022 -0.298,0.107 0.121,0.007 0.238,0.013 0.356,0.019 0.027,0.082 0.153,0.057 0.245,0.057 0.063,0 0.165,10e-4 0.125,-0.064 0.068,-0.039 0.174,10e-4 0.244,-0.034 0.128,-0.012 0.244,-0.034 0.299,-0.105 0.081,-0.009 0.133,-0.043 0.2,-0.065 0.128,0.028 0.268,0.037 0.424,0.023 H 21.03 c 0.076,0.106 0.189,0.031 0.29,0.017 h 0.001 c 0.189,-0.04 0.166,-0.117 0.124,-0.197 0.003,-0.007 0.001,-0.013 -0.005,-0.019 10e-4,-0.009 10e-4,-0.017 0.002,-0.026 0.006,-0.032 0.013,-0.064 0.019,-0.097 0.042,-0.027 -0.002,-0.048 -0.017,-0.072 0.089,-0.04 0.047,-0.095 0.059,-0.145 0.016,-0.008 0.021,-0.017 0.026,-0.026 0.05,-0.012 0.102,-0.023 0.153,-0.035 0.049,-0.012 0.108,-0.019 0.115,-0.058 -0.066,-0.006 -0.114,0.009 -0.156,0.03 v 0 c -0.04,0.008 -0.078,0.019 -0.117,0.03 -0.003,-0.004 -0.002,-0.008 -0.007,-0.012 0.005,-0.025 0.011,-0.05 0.016,-0.074 v 0 c -0.024,-0.022 -0.024,-0.042 -0.014,-0.061 0.06,-0.015 0.113,-0.031 0.163,-0.049 0.075,-0.007 0.156,-0.007 0.216,-0.072 -0.114,0.028 -0.193,0.047 -0.272,0.066 v 0 c -0.021,0.002 -0.041,0.007 -0.062,0.009 0.002,-10e-4 0.002,-0.002 0.003,-0.003 0.232,-0.049 0.059,-0.116 0.034,-0.177 0.01,-0.006 0.021,-0.008 0.03,-0.015 -0.012,10e-4 -0.021,0.002 -0.033,0.003 0.002,-0.013 0.004,-0.026 0.007,-0.039 0.033,-0.015 0.065,-0.03 0.098,-0.045 0.018,-0.038 0.034,-0.076 0.049,-0.114 0.049,0.004 0.096,0.006 0.114,-0.024 0.014,-0.023 -0.054,-0.021 -0.097,-0.024 0.001,-0.002 0,-0.005 0,-0.007 0.104,-0.048 0.064,-0.054 0.003,-0.055 0.003,-0.028 0.012,-0.056 0.005,-0.084 0.026,0 0.051,-0.001 0.077,-0.001 0.068,-0.012 0.051,-0.044 0.056,-0.07 0.065,-0.049 -0.07,-0.091 -0.008,-0.146 0.005,-0.005 0.005,-0.011 0.009,-0.016 0.004,-10e-4 0.008,-0.003 0.013,-0.004 0.109,-0.024 0.17,0.044 0.269,0.039 v 0 0 0 c 0.066,-0.033 0.115,-0.077 0.229,-0.073 0.034,10e-4 0.098,-0.021 0.076,-0.047 -0.021,-0.025 -0.046,-0.066 -0.126,-0.053 -0.064,0.01 -0.123,0.03 -0.187,0.041 -0.124,0.021 -0.188,0.005 -0.138,-0.071 0.088,-0.012 0.202,0.005 0.243,-0.06 0.146,-0.061 0.07,-0.134 0.006,-0.189 C 22.23,9.84 22.137,9.857 22.05,9.886 22.052,9.857 22.042,9.828 22.038,9.799 c 0,0 0,0 0,0 0.084,-0.013 0.206,-0.037 0.198,-0.079 -0.01,-0.051 -0.119,-0.038 -0.197,-0.02 0,0 0,0 0,0 0.025,-0.006 0.05,-0.012 0.074,-0.018 C 22.146,9.68 22.196,9.684 22.186,9.657 22.176,9.63 22.12,9.636 22.081,9.631 v 0 C 22.068,9.606 22.055,9.581 22.042,9.556 v 0 0 c 0.044,-0.007 0.089,-0.015 0.133,-0.022 0.011,0.014 0.02,0.028 0.033,0.046 0.023,-0.026 0.049,-0.045 0.066,-0.063 0.035,-0.006 0.071,-0.012 0.106,-0.018 0.175,-0.014 0.052,-0.077 0.069,-0.116 -0.057,-0.002 -0.087,0.013 -0.096,0.042 -0.003,0 -0.005,0 -0.007,0 -0.001,0 -0.001,0 -0.001,0 0.04,-0.011 0.07,-0.028 0.105,-0.042 h 0.001 C 22.496,9.376 22.542,9.368 22.587,9.361 22.769,9.33 22.657,9.254 22.676,9.199 22.691,9.176 22.743,9.159 22.723,9.129 22.717,9.104 22.711,9.08 22.705,9.055 v 0 z m -5.205,2.634 c 0.013,0.014 0.024,0.03 0.061,0.032 v 0 c -0.012,-0.015 -0.037,-0.023 -0.061,-0.032 z m 2.108,0.273 z M 5.396,7.992 v 0 C 5.368,7.996 5.349,8.006 5.334,8.018 v 0 C 5.358,8.012 5.38,8.004 5.396,7.992 Z m -1.229,0.66 v 0 c 0.005,0 0.007,-0.002 0.012,-0.002 v 0 C 4.175,8.652 4.17,8.65 4.167,8.652 4.169,8.654 4.171,8.656 4.173,8.659 4.162,8.66 4.153,8.663 4.142,8.664 4.15,8.66 4.158,8.656 4.167,8.652 Z m 15.416,3.246 c 0,0.003 -10e-4,0.005 -10e-4,0.008 v 0 c 10e-4,-0.002 0.002,-0.005 10e-4,-0.008 z m 1.25,-0.699 v 0 0 c -0.002,-0.002 -0.004,-0.004 -0.006,-0.006 0.011,-0.002 0.02,-0.004 0.031,-0.006 -0.008,0.004 -0.017,0.008 -0.025,0.012 z M 21.41,8.423 c -0.009,0 -0.018,-10e-4 -0.027,-10e-4 0.003,-0.001 0.007,-0.003 0.01,-0.004 0.007,0 0.01,0.004 0.017,0.005 z M 19.805,8.114 C 19.764,8.106 19.724,8.097 19.68,8.108 v 0 c 0.041,0.002 0.083,0.004 0.125,0.006 0,0 0,-0.001 0,0 z m -16.198,3.32 c -0.007,0 -0.01,-0.005 -0.016,-0.005 0.009,0 0.018,10e-4 0.026,10e-4 -0.004,10e-4 -0.007,0.003 -0.01,0.004 z m 1.588,0.304 c 0.041,0.008 0.082,0.017 0.125,0.006 v 0 C 5.279,11.741 5.237,11.74 5.195,11.738 Z M 21.227,8.414 C 21.215,8.413 21.204,8.413 21.192,8.412 21.161,8.402 21.13,8.393 21.1,8.383 c 0.056,0 0.113,0.001 0.169,0.001 -0.015,0.009 -0.03,0.019 -0.042,0.03 z M 21.096,8.362 c 0,-10e-4 0,-0.002 0,-0.003 0.002,0 0.004,-10e-4 0.007,-10e-4 C 21.1,8.359 21.097,8.36 21.096,8.362 Z M 10.686,8.079 C 10.64,8.077 10.594,8.076 10.548,8.074 v 0 c 0.044,0.021 0.091,0.015 0.138,0.005 z m -6.913,3.359 c 0.012,10e-4 0.023,10e-4 0.035,0.002 0.031,0.01 0.061,0.02 0.092,0.029 -0.056,0 -0.113,-10e-4 -0.169,-10e-4 0.015,-0.01 0.03,-0.02 0.042,-0.03 z M 3.9,11.469 Z m 0.004,0.02 c 0,10e-4 0,0.002 0,0.003 v 0 c -0.002,0 -0.004,10e-4 -0.007,10e-4 0.003,0 0.006,-0.002 0.007,-0.004 z m 10.41,0.284 c 0.046,0.002 0.092,0.003 0.137,0.005 v 0 c -0.043,-0.021 -0.09,-0.016 -0.137,-0.005 z M 21.036,8.25 c 0,0.002 -0.01,0 -0.009,0.002 0.003,0.009 0.023,0.02 0.039,0.023 0.015,0.002 0.036,-0.005 0.055,-0.008 -0.006,-0.005 -0.009,-0.008 -0.015,-0.012 0.096,0.006 0.191,0.012 0.287,0.018 0.002,0 0.004,10e-4 0.006,10e-4 -0.015,0.027 -0.04,0.05 -0.074,0.071 C 21.283,8.343 21.242,8.342 21.2,8.34 21.036,8.329 20.871,8.318 20.707,8.306 20.703,8.307 20.7,8.31 20.697,8.312 20.696,8.311 20.695,8.311 20.694,8.31 l 0.013,-0.006 c 10e-4,-0.013 0.002,-0.027 0.004,-0.04 0.092,-0.01 0.191,0.026 0.277,-0.013 0.013,0.001 0.026,0 0.038,-0.002 0.002,0 0.006,10e-4 0.01,10e-4 z M 19.241,8.032 c 0.032,0.006 0.075,0.009 0.069,0.025 -0.019,0 -0.038,-0.001 -0.056,-0.001 C 19.249,8.048 19.245,8.039 19.241,8.032 Z M 3.964,11.601 c 0,-0.002 0.01,0 0.009,-0.002 C 3.97,11.59 3.95,11.579 3.934,11.576 3.919,11.574 3.898,11.581 3.879,11.584 3.885,11.589 3.888,11.592 3.894,11.596 3.798,11.59 3.703,11.584 3.607,11.578 c -0.002,0 -0.004,-10e-4 -0.006,-10e-4 0.015,-0.027 0.04,-0.05 0.074,-0.071 0.042,0.002 0.083,0.003 0.125,0.005 0.164,0.011 0.329,0.023 0.493,0.034 0.003,-0.003 0.006,-0.005 0.009,-0.008 0.001,10e-4 0.002,10e-4 0.003,0.002 v 0 l -0.013,0.006 c -10e-4,0.013 -0.002,0.027 -0.003,0.04 v 0 C 4.199,11.596 4.1,11.561 4.013,11.6 4,11.599 3.988,11.6 3.975,11.602 c -0.003,0 -0.007,0 -0.011,-10e-4 z m 1.795,0.218 C 5.727,11.813 5.684,11.81 5.69,11.794 c 0.019,0 0.038,10e-4 0.057,10e-4 0.004,0.009 0.008,0.017 0.012,0.024 z m 12.5,-0.078 c 0.007,-0.003 0.014,-0.006 0.021,-0.009 v 0 c -0.007,0.003 -0.016,0.005 -0.021,0.009 z"
   id="path927" />
			<path
   style="fill:#ff5b78"
   d="m 10.947,7.927 c 0.106,-0.044 0.265,0.012 0.354,-0.055 0.12,-0.026 0.085,0.101 0.219,0.062 v 0 C 11.574,7.892 11.672,7.9 11.758,7.889 11.659,7.8 11.568,7.856 11.48,7.876 11.437,7.84 11.379,7.827 11.302,7.843 11.199,7.839 11.096,7.833 10.993,7.832 10.931,7.831 10.908,7.863 10.892,7.887 c -0.014,0.02 0.036,0.048 0.055,0.04 z"
   id="path928" />
			<path
   style="fill:#ff5b78"
   d="M 14.332,7.935 C 14.396,7.929 14.471,7.962 14.54,7.917 14.436,7.889 14.346,7.867 14.242,7.904 14.12,7.9 13.989,7.876 13.887,7.95 c 0.16,0.02 0.302,0.004 0.445,-0.015 z"
   id="path929" />
			<path
   style="fill:#ff5b78"
   d="M 6.426,7.745 C 6.518,7.754 6.596,7.79 6.696,7.785 6.747,7.783 6.806,7.826 6.839,7.794 6.875,7.76 6.782,7.759 6.749,7.742 6.642,7.7 6.518,7.701 6.393,7.702 v 0 0 C 6.266,7.73 6.109,7.708 5.997,7.765 6.145,7.769 6.293,7.795 6.426,7.745 Z"
   id="path930" />
			<path
   style="fill:#ff5b78"
   d="m 15.578,7.928 c 0.06,0.002 0.12,0.004 0.18,0.006 v 0 c 0.098,-0.024 0.139,0.04 0.222,0.04 v 0 0 c 0.052,0.004 0.104,0.012 0.146,-0.014 v 0 C 16.183,7.945 16.239,7.929 16.206,7.888 16.187,7.864 16.176,7.824 16.1,7.86 16.056,7.849 16.012,7.838 15.968,7.828 v 0 0 0 0 C 15.861,7.814 15.878,7.907 15.77,7.891 15.725,7.888 15.68,7.885 15.635,7.882 c -0.136,-0.048 -0.219,0.04 -0.344,0.023 0.096,0.053 0.195,0.013 0.287,0.023 z"
   id="path931" />
			<path
   style="fill:#ff5b78"
   d="m 13.543,7.937 c 0.07,-0.019 0.168,0.019 0.228,-0.03 C 13.696,7.843 13.596,7.893 13.509,7.889 13.467,7.85 13.417,7.853 13.368,7.884 c -0.022,0.014 -0.066,0.037 -0.034,0.051 0.062,0.024 0.138,0.017 0.209,0.002 z"
   id="path932" />
			<path
   style="fill:#ff5b78"
   d="M 8.302,7.887 C 8.345,7.883 8.4,7.858 8.413,7.836 8.431,7.806 8.367,7.803 8.325,7.8 8.275,7.796 8.235,7.801 8.245,7.836 8.253,7.857 8.24,7.894 8.302,7.887 Z"
   id="path933" />
			<path
   style="fill:#ff5b78"
   d="m 16.676,7.932 c -0.033,0.039 0.041,0.031 0.075,0.034 0.066,0.007 0.134,0.008 0.201,0.012 v 0 0 C 17.23,8.003 17.508,7.97 17.786,7.977 17.796,7.968 17.785,7.961 17.78,7.954 c 0.003,0 0.006,0 0.009,0.001 -0.001,0.008 -0.002,0.015 -0.003,0.023 0.059,0.017 0.116,0.044 0.187,0.013 h 0.001 c 0.104,0.004 0.208,0.008 0.313,0.012 0.038,0.002 0.085,0.014 0.111,0.005 0.056,-0.018 0.097,-0.104 0.157,-10e-4 0,0 0.058,-0.003 0.076,-0.012 C 18.663,7.979 18.652,7.961 18.624,7.942 18.485,7.851 18.361,7.855 18.251,7.957 18.236,7.956 18.22,7.956 18.205,7.955 18.126,7.964 18.049,7.964 17.978,7.94 L 17.979,7.939 C 18.002,7.873 17.953,7.843 17.825,7.846 17.744,7.848 17.662,7.845 17.581,7.845 17.495,7.839 17.404,7.823 17.349,7.878 v 0 0 0 0 c 0.011,0.036 0.097,0.026 0.119,0.056 -0.157,-0.02 -0.383,0.058 -0.455,-0.09 -0.005,-0.011 -0.073,-0.016 -0.107,0.015 -0.028,0.025 -0.083,0.043 -0.126,0.063 -0.037,0.002 -0.096,0 -0.104,0.01 z m 1.255,0.005 c 0,0 10e-4,-0.001 10e-4,-0.001 0,0 0,0 0.001,0 -0.001,0 -0.002,0 -0.002,0.001 z"
   id="path934" />
			<path
   style="fill:#ff5b78"
   d="M 12.194,7.887 C 12.175,7.827 12.081,7.826 11.988,7.851 11.99,7.88 12.026,7.895 12.07,7.906 12.116,7.904 12.205,7.924 12.194,7.887 Z"
   id="path935" />
			<path
   style="fill:#ff5b78"
   d="M 6.927,7.775 C 7.014,7.808 7.08,7.815 7.166,7.795 7.098,7.763 7.035,7.744 6.927,7.775 Z"
   id="path936" />
			<path
   style="fill:#ff5b78"
   d="M 9.743,7.821 C 9.642,7.839 9.58,7.851 9.518,7.862 9.589,7.863 9.677,7.9 9.743,7.821 Z"
   id="path937" />
			<path
   style="fill:#ff5b78"
   d="M 9.499,7.932 C 9.417,7.894 9.31,7.924 9.263,7.877 9.269,7.875 9.277,7.873 9.281,7.87 9.285,7.867 9.288,7.861 9.285,7.859 9.24,7.824 9.159,7.797 9.103,7.82 9.045,7.844 9.067,7.887 9.165,7.894 9.258,7.937 9.367,7.935 9.499,7.932 Z"
   id="path938" />
			<path
   style="fill:#ff5b78"
   d="M 16.78,7.842 C 16.765,7.826 16.731,7.821 16.692,7.82 c -0.022,0 -0.05,0 -0.046,0.017 0.005,0.022 0.031,0.038 0.071,0.041 0.032,0.003 0.053,-0.011 0.063,-0.036 z"
   id="path939" />
			<path
   style="fill:#ff5b78"
   d="M 12.672,7.945 C 12.731,7.942 12.799,7.953 12.833,7.916 12.849,7.899 12.829,7.889 12.8,7.878 12.72,7.849 12.65,7.85 12.585,7.89 12.537,7.885 12.505,7.893 12.533,7.92 12.562,7.95 12.6,7.979 12.672,7.945 Z"
   id="path940" />
			<path
   style="fill:#ff5b78"
   d="M 7.608,7.839 C 7.663,7.93 7.814,7.882 7.92,7.899 8.086,7.876 7.963,7.84 7.933,7.809 7.883,7.791 7.843,7.73 7.784,7.764 7.709,7.808 7.798,7.838 7.878,7.856 v 0 C 7.877,7.862 7.875,7.868 7.874,7.874 7.79,7.865 7.674,7.888 7.655,7.813 7.662,7.786 7.653,7.763 7.591,7.763 7.574,7.763 7.545,7.773 7.543,7.78 7.536,7.807 7.569,7.824 7.608,7.839 Z"
   id="path941" />
			<path
   style="fill:#ff5b78"
   d="m 9.899,7.935 v 0 C 9.973,7.939 10.047,7.943 10.121,7.947 10.128,7.91 10.029,7.936 10.042,7.905 10.251,7.883 10.46,7.882 10.721,7.9 10.507,7.807 10.134,7.788 9.917,7.838 9.759,7.862 9.838,7.899 9.899,7.935 Z"
   id="path942" />
			<path
   style="fill:#ff5b78"
   d="M 15,7.908 C 14.976,7.907 14.952,7.901 14.941,7.906 14.919,7.915 14.826,7.887 14.879,7.931 14.904,7.952 14.969,7.944 15,7.908 Z"
   id="path943" />
			<path
   style="fill:#ff5b78"
   d="M 8.637,7.821 C 8.632,7.812 8.608,7.806 8.589,7.796 8.576,7.803 8.557,7.811 8.559,7.813 8.568,7.822 8.58,7.834 8.596,7.838 c 0.02,0.004 0.049,0 0.041,-0.017 z"
   id="path944" />
			<rect
   x="2.8069999"
   y="9.5050001"
   style="fill:#ff5b78"
   width="0"
   height="0"
   id="rect944" />
			<path
   style="fill:#ff5b78"
   d="M 2.8,9.464 C 2.773,9.461 2.74,9.48 2.71,9.489 2.742,9.494 2.774,9.5 2.807,9.505 2.81,9.491 2.867,9.47 2.8,9.464 Z"
   id="path945" />
			<path
   style="fill:#ff5b78"
   d="m 11.933,7.954 v 0 C 12.001,7.956 12.026,7.923 12.069,7.906 12.058,7.881 12.028,7.863 11.987,7.851 11.953,7.875 11.92,7.899 11.886,7.923 11.851,7.924 11.794,7.921 11.809,7.947 c 0.023,0.038 0.079,0.021 0.124,0.007 z"
   id="path946" />
		</g>
</svg>
